# xmcd CD database file
#
# Track frame offsets:
#	150
#	23661
#	65923
#	92743
#	115600
#	147559
#	164742
#
# Disc length: 3087 seconds
#
# Revision: 0
# Processed by: cddbd v1.5.2PL0 Copyright (c) Steve Scherf et al.
# Submitted via: CDex 1.70beta2
#
DISCID=620c0d07
DTITLE=Way Out - Higher Again
DYEAR=2010
DGENRE=Jazz
TTITLE0=Moondance
TTITLE1=My Bitter Sweet Rush
TTITLE2=Don't Leave Me Now
TTITLE3=Norwegian Wood
TTITLE4=Crystal Clear
TTITLE5=St. Thomas
TTITLE6=To Be
EXTD=YEAR: 2010
EXTT0=
EXTT1=
EXTT2=
EXTT3=
EXTT4=
EXTT5=
EXTT6=
PLAYORDER=
